<?xml version="1.0" standalone="no"?>
<!DOCTYPE svg PUBLIC "-//W3C//DTD SVG 20010904//EN"
 "http://www.w3.org/TR/2001/REC-SVG-20010904/DTD/svg10.dtd">
<svg version="1.0" xmlns="http://www.w3.org/2000/svg"
 width="700.000000pt" height="700.000000pt" viewBox="0 0 700.000000 700.000000"
 preserveAspectRatio="xMidYMid meet">
<metadata>
Created by potrace 1.14, written by Peter Selinger 2001-2017
</metadata>
<g transform="translate(0.000000,700.000000) scale(0.100000,-0.100000)"
fill="#000000" stroke="none">
<path d="M2434 5937 c-583 -584 -1092 -1098 -1130 -1142 -364 -419 -603 -948
-678 -1500 -26 -184 -32 -498 -15 -675 69 -683 369 -1311 853 -1783 266 -260
540 -445 889 -601 32 -14 60 -26 63 -26 3 0 20 -6 37 -14 56 -25 286 -99 346
-111 9 -2 36 -8 61 -14 25 -5 59 -12 75 -15 17 -3 39 -8 50 -10 158 -31 281
-41 510 -41 247 0 348 9 545 46 829 155 1570 685 1984 1419 200 355 326 760
364 1165 9 102 9 426 -1 529 -9 95 -33 260 -48 324 -6 26 -12 55 -14 65 -12
56 -40 156 -71 252 -121 369 -315 710 -573 1005 -56 63 -2176 2190 -2183 2190
-2 0 -480 -478 -1064 -1063z"/>
</g>
</svg>
